<?xml version="1.0" encoding="UTF-8"?>
<svg version="1.1" xmlns="http://www.w3.org/2000/svg" width="32" height="32">
<path d="M0 0 C0.48970976 7.223219 0.48970976 7.223219 -1.8125 10.875 C-4 13 -4 13 -7 15 C-8.07136051 17.30144109 -9.07989717 19.6340213 -10 22 C-11.32 22 -12.64 22 -14 22 C-14 21.34 -14 20.68 -14 20 C-14.350625 20.474375 -14.70125 20.94875 -15.0625 21.4375 C-17.84163543 23.67873825 -20.5144717 23.67117658 -24 24 C-23.38461538 17.47692308 -23.38461538 17.47692308 -21.4375 15.0625 C-20.963125 14.711875 -20.48875 14.36125 -20 14 C-20.99 13.67 -21.98 13.34 -23 13 C-22 10 -22 10 -20.29296875 9.0078125 C-19.59816406 8.71648438 -18.90335938 8.42515625 -18.1875 8.125 C-14.39768373 6.36907439 -12.42707896 4.45392005 -10 1 C-6.78548731 -0.60725635 -3.56387464 -0.05748185 0 0 Z " fill="#CBBDC0" transform="translate(28,4)"/>
<path d="M0 0 C0.8971875 0.309375 0.8971875 0.309375 1.8125 0.625 C1.3175 1.24375 0.8225 1.8625 0.3125 2.5 C-1.37972773 4.46380904 -1.37972773 4.46380904 -1.1875 6.625 C0.27083358 8.25014468 0.27083358 8.25014468 1.8125 9.625 C2.410625 9.315625 3.00875 9.00625 3.625 8.6875 C5.8125 7.625 5.8125 7.625 8.8125 6.625 C8.26526317 9.99962715 7.7576 11.70735 5.8125 14.625 C4.8225 14.295 3.8325 13.965 2.8125 13.625 C2.8125 12.965 2.8125 12.305 2.8125 11.625 C2.461875 12.099375 2.11125 12.57375 1.75 13.0625 C-1.02913543 15.30373825 -3.7019717 15.29617658 -7.1875 15.625 C-6.57211538 9.10192308 -6.57211538 9.10192308 -4.625 6.6875 C-3.9134375 6.1615625 -3.9134375 6.1615625 -3.1875 5.625 C-4.1775 5.295 -5.1675 4.965 -6.1875 4.625 C-5.03076352 1.15479057 -3.91311293 -0.67081936 0 0 Z " fill="#225695" transform="translate(11.1875,12.375)"/>
<path d="M0 0 C2.00720923 0.28674418 4.0085944 0.61866701 6 1 C6.33 2.32 6.66 3.64 7 5 C5.23871656 6.36656457 3.46563912 7.71794085 1.6875 9.0625 C0.70136719 9.81660156 -0.28476562 10.57070313 -1.30078125 11.34765625 C-2.19152344 11.89292969 -3.08226562 12.43820313 -4 13 C-4.99 12.67 -5.98 12.34 -7 12 C-6.42655063 9.13275314 -6.1385485 8.1385485 -4 6 C-3.01 6 -2.02 6 -1 6 C-1.020625 5.195625 -1.04125 4.39125 -1.0625 3.5625 C-1 1 -1 1 0 0 Z " fill="#7C9CB5" transform="translate(19,10)"/>
<path d="M0 0 C0 0.66 0 1.32 0 2 C-0.99 2.66 -1.98 3.32 -3 4 C-3.72965366 6.56282742 -3.72965366 6.56282742 -4 9 C-4.66 9 -5.32 9 -6 9 C-6.66 10.32 -7.32 11.64 -8 13 C-9.32 13 -10.64 13 -12 13 C-6 0 -6 0 0 0 Z " fill="#EAE9E9" transform="translate(21,6)"/>
<path d="M0 0 C2.0625 0.75 2.0625 0.75 4 2 C4.33 2.99 4.66 3.98 5 5 C4.67 5.66 4.34 6.32 4 7 C1.67843403 7.40729228 -0.6568787 7.74438677 -3 8 C-2.74438677 5.6568787 -2.40729228 3.32156597 -2 1 C-1.34 0.67 -0.68 0.34 0 0 Z " fill="#FC9D2B" transform="translate(7,20)"/>
<path d="M0 0 C0.598125 0.20625 1.19625 0.4125 1.8125 0.625 C1.07 1.5221875 1.07 1.5221875 0.3125 2.4375 C-1.47026418 4.59529994 -1.47026418 4.59529994 -1.1875 7.625 C-1.8475 7.625 -2.5075 7.625 -3.1875 7.625 C-3.1875 6.965 -3.1875 6.305 -3.1875 5.625 C-4.1775 5.295 -5.1675 4.965 -6.1875 4.625 C-5.03076352 1.15479057 -3.91311293 -0.67081936 0 0 Z " fill="#116CD0" transform="translate(11.1875,12.375)"/>
<path d="M0 0 C0.66 0.66 1.32 1.32 2 2 C4.06874034 2.6425235 4.06874034 2.6425235 6 3 C3.1875 5.0625 3.1875 5.0625 0 7 C-0.99 6.67 -1.98 6.34 -3 6 C-2.42655063 3.13275314 -2.1385485 2.1385485 0 0 Z " fill="#9198A0" transform="translate(15,16)"/>
<path d="M0 0 C0.99 0.33 1.98 0.66 3 1 C2.75 2.875 2.75 2.875 2 5 C-0.0625 6.25 -0.0625 6.25 -2 7 C-2 3 -2 3 0 0 Z " fill="#D8DCE3" transform="translate(12,13)"/>
<path d="M0 0 C0 2.31 0 4.62 0 7 C-1.65 5.35 -3.3 3.7 -5 2 C-2 0 -2 0 0 0 Z " fill="#C73630" transform="translate(28,4)"/>
<path d="M0 0 C0.33 0 0.66 0 1 0 C1 1.65 1 3.3 1 5 C2.65 5 4.3 5 6 5 C3 7 3 7 -1 7 C-0.67 4.69 -0.34 2.38 0 0 Z " fill="#ED301A" transform="translate(5,21)"/>
<path d="M0 0 C0.33 0 0.66 0 1 0 C1 2.64 1 5.28 1 8 C0.67 8 0.34 8 0 8 C0 5.36 0 2.72 0 0 Z " fill="#CF2727" transform="translate(29,4)"/>
<path d="M0 0 C2.64 0 5.28 0 8 0 C8 0.33 8 0.66 8 1 C5.36 1 2.72 1 0 1 C0 0.67 0 0.34 0 0 Z " fill="#F73F3F" transform="translate(20,2)"/>
<path d="M0 0 C4 1 4 1 4 1 Z " fill="#FF2A00" transform="translate(4,29)"/>
<path d="M0 0 C1 4 1 4 1 4 Z " fill="#FF2A00" transform="translate(2,24)"/>
<path d="M0 0 C1 4 1 4 1 4 Z " fill="#1B50AE" transform="translate(21,19)"/>
<path d="M0 0 C4 1 4 1 4 1 Z " fill="#2D58E0" transform="translate(9,10)"/>
<path d="M0 0 C0.66 0.66 1.32 1.32 2 2 C1.34 2 0.68 2 0 2 C0 1.34 0 0.68 0 0 Z " fill="#8D4755" transform="translate(12,25)"/>
<path d="M0 0 C0.66 0.66 1.32 1.32 2 2 C1.34 2 0.68 2 0 2 C0 1.34 0 0.68 0 0 Z " fill="#8D47B8" transform="translate(5,18)"/>
<path d="M0 0 C2 1 2 1 2 1 Z " fill="#0040FF" transform="translate(15,28)"/>
<path d="M0 0 C2 1 2 1 2 1 Z " fill="#FF6A00" transform="translate(8,28)"/>
<path d="" fill="#0040BF" transform="translate(0,0)"/>
<path d="" fill="#FF6A00" transform="translate(0,0)"/>
<path d="M0 0 C2 1 2 1 2 1 Z " fill="#BFBFBF" transform="translate(22,18)"/>
<path d="" fill="#0040FF" transform="translate(0,0)"/>
<path d="M0 0 C2 1 2 1 2 1 Z " fill="#0040BF" transform="translate(7,11)"/>
<path d="" fill="#D4D4D4" transform="translate(0,0)"/>
<path d="" fill="#FF0000" transform="translate(0,0)"/>
<path d="" fill="#008080" transform="translate(0,0)"/>
<path d="" fill="#000000" transform="translate(0,0)"/>
<path d="" fill="#FF0000" transform="translate(0,0)"/>
<path d="" fill="#0080FF" transform="translate(0,0)"/>
<path d="" fill="#0080FF" transform="translate(0,0)"/>
<path d="" fill="#FF0000" transform="translate(0,0)"/>
<path d="" fill="#AAAAAA" transform="translate(0,0)"/>
<path d="" fill="#0000FF" transform="translate(0,0)"/>
<path d="" fill="#AAAAAA" transform="translate(0,0)"/>
<path d="" fill="#AAAAAA" transform="translate(0,0)"/>
<path d="" fill="#808080" transform="translate(0,0)"/>
<path d="" fill="#0080FF" transform="translate(0,0)"/>
<path d="" fill="#0080FF" transform="translate(0,0)"/>
<path d="" fill="#AAAAAA" transform="translate(0,0)"/>
<path d="" fill="#0080FF" transform="translate(0,0)"/>
<path d="" fill="#FFFFFF" transform="translate(0,0)"/>
<path d="" fill="#FFFFFF" transform="translate(0,0)"/>
<path d="" fill="#FFFFFF" transform="translate(0,0)"/>
<path d="" fill="#FFFFFF" transform="translate(0,0)"/>
<path d="" fill="#FF0000" transform="translate(0,0)"/>
<path d="" fill="#BFBFBF" transform="translate(0,0)"/>
</svg>
